<?xml version="1.0" encoding="UTF-8"?>
<svg xmlns="http://www.w3.org/2000/svg" width="16" height="16" viewBox="0 0 16 16">
  <g fill="currentColor" stroke="none">
    <!-- Left column (full) -->
    <rect x="1.5" y="2.5" width="3.5" height="11" rx="0.5"/>
    
    <!-- Middle column (full) -->
    <rect x="6" y="2.5" width="3.5" height="11" rx="0.5"/>
    
    <!-- Right: Z on top -->
    <path d="M 10.7 2.5
             L 13.8 2.5
             C 14 2.5, 14.2 2.7, 14.2 2.9
             L 14.2 3.25
             C 14.2 3.45, 14.1 3.65, 13.9 3.85
             L 11.8 5.95
             C 11.6 6.15, 11.6 6.35, 11.8 6.35
             L 13.8 6.35
             C 14 6.35, 14.2 6.55, 14.2 6.75
             L 14.2 7.3
             C 14.2 7.576, 14 7.8, 13.8 7.8
             L 10.7 7.8
             C 10.5 7.8, 10.3 7.576, 10.3 7.3
             L 10.3 6.75
             C 10.3 6.55, 10.4 6.35, 10.6 6.15
             L 12.7 4.05
             C 12.9 3.85, 12.9 3.65, 12.7 3.65
             L 10.7 3.65
             C 10.5 3.65, 10.3 3.45, 10.3 3.25
             L 10.3 2.9
             C 10.3 2.7, 10.5 2.5, 10.7 2.5 Z"/>
    
    <!-- Right: window on bottom -->
    <rect x="10.5" y="8.7" width="3.5" height="4.8" rx="0.5"/>
  </g>
</svg>
